<?xml version="1.0" standalone="no"?>
<!DOCTYPE svg PUBLIC "-//W3C//DTD SVG 20010904//EN"
 "http://www.w3.org/TR/2001/REC-SVG-20010904/DTD/svg10.dtd">
<svg version="1.0" xmlns="http://www.w3.org/2000/svg"
 width="2560.000000pt" height="2560.000000pt" viewBox="0 0 2560.000000 2560.000000"
 preserveAspectRatio="xMidYMid meet">
<metadata>
Created by potrace 1.11, written by Peter Selinger 2001-2013
</metadata>
<g transform="translate(0.000000,2560.000000) scale(0.100000,-0.100000)"
fill="#000000" stroke="none">
<path d="M1475 25590 c-391 -33 -734 -194 -1010 -474 -276 -280 -426 -614
-455 -1016 -8 -102 -10 -3475 -8 -11400 3 -10709 4 -11260 21 -11350 66 -359
214 -642 461 -885 280 -276 614 -426 1016 -455 102 -8 3475 -10 11400 -8
10709 3 11260 4 11350 21 359 66 642 214 885 461 276 280 426 614 455 1016 8
102 10 3473 8 11405 l-4 11260 -21 110 c-100 509 -414 929 -858 1149 -202 100
-372 147 -599 166 -151 12 -22495 12 -22641 0z m5015 -9530 c0 -16 7 -20 38
-20 51 0 82 -10 82 -25 0 -7 19 -16 45 -19 29 -5 45 -12 45 -22 0 -8 9 -14 20
-14 13 0 20 -7 20 -20 0 -14 7 -20 21 -20 12 0 23 -8 26 -19 3 -11 13 -21 24
-24 11 -3 19 -14 19 -26 0 -14 6 -21 20 -21 13 0 20 -7 20 -20 0 -13 7 -20 20
-20 13 0 20 -7 20 -20 0 -13 7 -20 20 -20 17 0 20 -7 20 -45 0 -37 3 -45 19
-45 20 0 31 -34 31 -96 0 -22 5 -34 14 -34 16 0 25 -72 18 -154 -3 -39 -9 -56
-18 -56 -10 0 -14 -14 -14 -49 0 -76 -10 -111 -31 -111 -15 0 -19 -8 -19 -40
0 -33 -3 -40 -20 -40 -15 0 -20 -7 -20 -25 0 -18 -5 -25 -20 -25 -13 0 -20 -7
-20 -20 0 -13 -7 -20 -20 -20 -13 0 -20 -7 -20 -20 0 -13 -7 -20 -20 -20 -13
0 -20 -7 -20 -20 0 -15 -7 -20 -25 -20 -18 0 -25 -5 -25 -19 0 -15 -10 -21
-40 -26 -30 -5 -40 -11 -40 -26 0 -15 -7 -19 -39 -19 -30 0 -40 -4 -44 -20 -4
-17 -14 -20 -66 -20 -55 0 -61 -2 -61 -20 0 -20 -5 -20 -187 -18 -159 3 -188
5 -188 18 0 9 -11 16 -30 18 -66 5 -95 14 -95 26 0 9 -17 16 -45 20 -36 6 -45
11 -45 27 0 12 -7 19 -20 19 -13 0 -20 7 -20 20 0 17 -7 20 -39 20 -38 0 -39
1 -46 40 -5 30 -11 40 -26 40 -12 0 -19 7 -19 20 0 13 -7 20 -20 20 -15 0 -20
7 -20 25 0 18 -5 25 -20 25 -17 0 -20 7 -20 40 0 33 -3 40 -20 40 -18 0 -20 7
-20 60 0 53 -2 60 -20 60 -19 0 -20 7 -20 130 0 123 1 130 20 130 18 0 20 7
20 65 0 58 2 65 20 65 17 0 20 7 20 40 0 33 3 40 20 40 13 0 20 7 20 20 0 13
7 20 20 20 13 0 20 7 20 20 0 13 7 20 20 20 13 0 20 7 20 18 0 24 19 42 36 35
8 -3 14 -1 14 5 0 6 -6 13 -12 15 -7 3 2 8 20 12 22 5 32 13 32 26 0 12 7 19
19 19 10 0 21 9 24 20 4 16 14 20 46 20 34 0 41 3 41 20 0 18 7 20 60 20 53 0
60 2 60 20 0 19 7 20 210 20 203 0 210 -1 210 -20z m9110 -1440 c0 -873 0
-880 20 -880 17 0 20 7 20 40 0 33 3 40 20 40 15 0 20 7 20 25 0 18 5 25 19
25 15 0 21 10 26 40 5 30 11 40 26 40 12 0 19 7 19 20 0 13 7 20 20 20 13 0
20 7 20 20 0 13 7 20 20 20 15 0 20 7 20 25 0 18 5 25 19 25 10 0 21 9 24 20
4 15 14 20 41 20 29 0 36 4 36 20 0 15 7 20 25 20 18 0 25 5 25 20 0 17 7 20
40 20 33 0 40 3 40 20 0 15 7 20 29 20 54 0 89 12 94 31 4 16 15 19 71 19 42
0 66 4 66 11 0 8 4 8 14 0 11 -9 15 -7 19 9 5 19 13 20 249 20 254 0 288 -3
288 -26 0 -10 16 -14 63 -14 74 0 107 -8 107 -25 0 -14 43 -25 96 -25 27 0 34
-4 34 -20 0 -17 7 -20 45 -20 38 0 45 -3 45 -20 0 -17 7 -20 40 -20 33 0 40
-3 40 -20 0 -17 7 -20 40 -20 33 0 40 -3 40 -20 0 -14 7 -20 21 -20 12 0 23
-8 26 -19 3 -13 17 -22 44 -26 29 -5 39 -11 39 -26 0 -12 7 -19 20 -19 13 0
20 -7 20 -20 0 -13 7 -20 20 -20 13 0 20 -7 20 -20 0 -13 7 -20 20 -20 13 0
20 -7 20 -20 0 -15 7 -20 25 -20 18 0 25 -5 25 -20 0 -12 7 -20 16 -20 9 0 18
-9 21 -19 3 -11 13 -21 24 -24 11 -3 19 -14 19 -26 0 -14 6 -21 20 -21 13 0
20 -7 20 -20 0 -13 7 -20 20 -20 17 0 20 -7 20 -40 0 -33 3 -40 20 -40 15 0
20 -7 20 -25 0 -18 5 -25 19 -25 15 0 21 -10 26 -40 5 -30 11 -40 26 -40 15 0
19 -7 19 -39 0 -30 4 -40 20 -44 16 -4 20 -14 20 -46 0 -34 3 -41 20 -41 11 0
19 -3 19 -7 -1 -5 -1 -41 0 -80 1 -66 3 -73 21 -73 18 0 20 -7 20 -85 0 -78 2
-85 20 -85 20 0 20 -7 20 -335 0 -328 0 -335 -20 -335 -19 0 -20 -7 -20 -105
0 -98 -1 -105 -20 -105 -18 0 -20 -7 -20 -60 0 -53 -2 -60 -20 -60 -17 0 -20
-7 -20 -45 0 -38 -3 -45 -20 -45 -17 0 -20 -7 -20 -40 0 -33 -3 -40 -19 -40
-15 0 -21 -10 -26 -39 -4 -27 -13 -41 -26 -44 -11 -3 -19 -14 -19 -26 0 -14
-6 -21 -20 -21 -17 0 -20 -7 -20 -40 0 -33 -3 -40 -20 -40 -13 0 -20 -7 -20
-20 0 -13 -7 -20 -20 -20 -15 0 -20 -7 -20 -25 0 -18 -5 -25 -20 -25 -13 0
-20 -7 -20 -20 0 -13 -7 -20 -20 -20 -13 0 -20 -7 -20 -20 0 -15 -7 -20 -25
-20 -18 0 -25 -5 -25 -20 0 -13 -7 -20 -20 -20 -13 0 -20 -7 -20 -20 0 -13 -7
-20 -20 -20 -15 0 -20 -7 -20 -25 0 -18 -5 -25 -19 -25 -10 0 -21 -9 -24 -20
-3 -12 -14 -20 -26 -20 -12 0 -21 -6 -21 -14 0 -9 -15 -17 -40 -21 -30 -5 -40
-11 -40 -26 0 -14 -7 -19 -25 -19 -18 0 -25 -5 -25 -20 0 -17 -7 -20 -40 -20
-33 0 -40 -3 -40 -19 0 -15 -10 -21 -40 -26 -22 -4 -40 -12 -40 -20 0 -13 -43
-25 -90 -25 -19 0 -29 -6 -33 -20 -4 -17 -14 -20 -66 -20 -45 0 -61 -4 -61
-14 0 -20 -46 -26 -196 -26 -127 0 -134 -1 -134 -20 0 -17 -7 -20 -45 -20 -38
0 -45 3 -45 20 0 19 -7 20 -145 20 -138 0 -145 1 -145 20 0 18 -7 20 -65 20
-58 0 -65 2 -65 20 0 17 -7 20 -40 20 -33 0 -40 4 -40 19 0 15 -10 20 -45 25
-36 6 -45 11 -45 27 0 16 -7 19 -40 19 -33 0 -40 3 -40 20 0 13 -7 20 -20 20
-13 0 -20 7 -20 20 0 13 -7 20 -20 20 -13 0 -20 7 -20 20 0 13 -7 20 -20 20
-13 0 -20 7 -20 19 0 13 -8 21 -22 23 -15 2 -24 11 -26 26 -2 14 -10 22 -23
22 -12 0 -19 7 -19 20 0 11 -6 20 -14 20 -9 0 -17 15 -21 40 -5 30 -11 40 -26
40 -16 0 -19 7 -19 40 0 33 -3 40 -20 40 -20 0 -20 -7 -20 -270 l0 -270 -690
0 -690 0 0 2155 0 2155 145 0 c138 0 145 1 145 20 0 19 7 20 126 20 95 0 129
3 140 14 11 11 11 16 1 19 -6 3 38 6 98 6 130 1 185 9 185 26 0 15 86 25 206
25 66 0 84 3 84 14 0 19 24 23 148 25 l102 1 0 -880z m4084 869 c3 -3 7 -721
7 -1595 1 -874 4 -1615 6 -1646 3 -41 9 -58 19 -58 8 0 16 -15 20 -40 6 -39 8
-40 45 -40 32 0 39 -3 39 -20 0 -18 7 -20 65 -20 58 0 65 -2 65 -20 0 -19 7
-20 100 -20 93 0 100 1 100 20 0 18 7 20 85 20 78 0 85 2 85 20 0 13 7 20 20
20 19 0 20 7 20 125 0 118 -1 125 -20 125 -20 0 -20 7 -20 965 l0 965 690 0
690 0 0 -940 c0 -933 0 -940 20 -940 18 0 20 -7 20 -86 0 -78 2 -86 20 -91 14
-4 22 -17 26 -44 5 -29 11 -39 25 -39 15 0 19 -8 19 -40 0 -33 3 -40 20 -40
13 0 20 -7 20 -20 0 -17 7 -20 40 -20 33 0 40 -3 40 -20 0 -17 7 -20 41 -20
32 0 42 -4 46 -20 5 -18 14 -20 104 -20 77 0 99 3 99 14 0 15 42 26 96 26 27
0 34 4 34 20 0 13 7 20 20 20 13 0 20 7 20 20 0 13 7 20 20 20 13 0 20 7 20
20 0 13 7 20 20 20 13 0 20 7 20 20 0 13 7 20 19 20 14 0 20 10 25 40 4 24 12
40 20 40 9 0 16 17 20 45 6 36 11 45 27 45 18 0 19 8 19 125 0 118 1 125 20
125 20 0 20 7 20 860 l0 860 450 0 450 0 0 -2070 c0 -1373 -3 -2070 -10 -2070
-5 0 -10 -11 -10 -25 0 -18 -5 -25 -20 -25 -13 0 -20 -7 -20 -20 0 -13 -7 -20
-20 -20 -13 0 -20 -7 -20 -20 0 -15 -7 -20 -25 -20 -18 0 -25 -5 -25 -20 0
-13 -7 -20 -20 -20 -13 0 -20 -7 -20 -20 0 -13 -7 -20 -20 -20 -13 0 -20 -7
-20 -19 0 -15 -10 -21 -40 -26 -30 -5 -40 -11 -40 -26 0 -12 -7 -19 -19 -19
-10 0 -21 -9 -24 -20 -4 -16 -14 -20 -46 -20 -34 0 -41 -3 -41 -20 0 -13 -7
-20 -20 -20 -13 0 -20 -7 -20 -20 0 -17 -7 -20 -41 -20 -32 0 -42 -4 -46 -19
-5 -19 -40 -31 -94 -31 -22 0 -29 -5 -29 -20 0 -18 -7 -20 -60 -20 -53 0 -60
-2 -60 -20 0 -18 -7 -20 -70 -20 -53 0 -70 -3 -70 -14 0 -20 -33 -26 -162 -26
-111 0 -118 -1 -118 -20 0 -20 -7 -20 -270 -20 -263 0 -270 0 -270 20 0 19 -7
20 -150 20 -142 0 -150 1 -150 20 0 16 -8 19 -57 22 l-58 3 -3 38 c-2 28 0 37
12 37 13 0 16 13 16 68 0 161 13 312 27 312 7 0 14 11 14 25 1 14 3 30 4 35 1
6 3 80 4 165 1 148 2 155 21 155 18 0 20 7 20 66 l0 66 248 -2 c136 -2 304 -2
375 -1 120 1 127 2 127 21 0 17 7 20 45 20 38 0 45 3 45 20 0 17 7 20 40 20
33 0 40 3 40 20 0 15 7 20 25 20 18 0 25 5 25 19 0 13 10 21 34 25 29 6 35 12
40 40 4 22 13 36 26 39 12 3 20 14 20 26 0 12 6 21 14 21 10 0 17 16 22 45 5
35 10 45 25 45 17 0 19 8 19 60 0 53 2 60 20 60 19 0 20 7 20 125 0 118 1 125
20 125 19 0 20 7 20 120 0 97 -3 120 -14 120 -9 0 -17 -15 -21 -40 -5 -30 -11
-40 -26 -40 -12 0 -19 -7 -19 -20 0 -13 -7 -20 -20 -20 -17 0 -20 -7 -20 -40
0 -33 -3 -40 -20 -40 -14 0 -20 -7 -20 -21 0 -12 -8 -23 -19 -26 -11 -3 -21
-13 -24 -24 -3 -11 -14 -19 -26 -19 -14 0 -21 -6 -21 -20 0 -13 -7 -20 -20
-20 -13 0 -20 -7 -20 -20 0 -17 -7 -20 -40 -20 -33 0 -40 -3 -40 -20 0 -13 -7
-20 -20 -20 -13 0 -20 -7 -20 -19 0 -15 -10 -20 -45 -25 -28 -5 -45 -12 -45
-21 0 -8 -16 -16 -40 -20 -22 -4 -40 -12 -40 -20 0 -15 -44 -25 -110 -25 -39
0 -49 -4 -53 -20 -5 -19 -13 -20 -314 -20 -169 0 -318 3 -330 6 -13 4 -23 13
-23 20 0 9 -12 14 -34 14 -54 0 -96 11 -96 26 0 9 -11 14 -29 14 -54 0 -89 12
-94 31 -3 11 -14 19 -26 19 -14 0 -21 6 -21 20 0 17 -7 20 -40 20 -33 0 -40 3
-40 20 0 15 -7 20 -25 20 -18 0 -25 5 -25 19 0 13 -10 21 -34 25 -22 4 -36 13
-39 26 -3 12 -14 20 -26 20 -14 0 -21 6 -21 20 0 13 -7 20 -20 20 -13 0 -20 7
-20 20 0 13 -7 20 -19 20 -15 0 -21 10 -26 40 -5 30 -11 40 -26 40 -12 0 -19
7 -19 19 0 10 -9 21 -20 24 -15 4 -20 14 -20 41 0 29 -4 36 -20 36 -15 0 -20
7 -20 25 0 18 -5 25 -20 25 -17 0 -20 7 -20 40 0 32 -4 40 -19 40 -19 0 -31
39 -31 101 0 18 -6 28 -20 32 -15 4 -20 14 -20 41 0 26 -4 36 -15 36 -14 0
-16 -37 -15 -310 1 -261 4 -310 16 -310 8 0 14 -8 14 -17 0 -10 3 -28 6 -41 5
-18 2 -24 -15 -29 -12 -3 -21 -13 -21 -24 0 -16 -8 -19 -45 -19 -38 0 -45 -3
-45 -20 0 -15 -7 -20 -29 -20 -54 0 -89 -12 -94 -31 -4 -16 -15 -19 -66 -19
-54 0 -61 -2 -61 -20 0 -18 -7 -20 -85 -20 -78 0 -85 -2 -85 -20 0 -19 -7 -20
-205 -20 -143 0 -205 -3 -205 -11 0 -6 7 -9 15 -5 8 3 15 2 15 -3 0 -11 -36
-21 -78 -21 -26 0 -35 5 -39 20 -5 19 -14 20 -149 20 -137 0 -144 1 -144 20 0
18 -7 20 -57 20 -71 0 -103 8 -103 25 0 7 -19 16 -45 19 -28 5 -45 12 -45 21
0 7 -10 15 -22 17 -15 2 -24 11 -26 26 -3 18 -10 22 -43 22 -32 0 -39 3 -39
20 0 13 -7 20 -20 20 -13 0 -20 7 -20 20 0 13 -7 20 -20 20 -13 0 -20 7 -20
20 0 14 -7 20 -21 20 -12 0 -23 8 -26 19 -3 11 -13 21 -24 24 -11 3 -19 14
-19 26 0 14 -6 21 -20 21 -17 0 -20 7 -20 40 0 33 -3 40 -20 40 -13 0 -20 7
-20 20 0 13 -7 20 -20 20 -17 0 -20 7 -20 45 0 38 -3 45 -20 45 -17 0 -20 7
-20 41 0 32 -4 42 -19 46 -17 4 -21 17 -27 84 -6 68 -9 79 -25 79 -17 0 -19 9
-19 105 0 75 -3 104 -12 102 -6 -1 -15 9 -19 23 -9 30 -12 3221 -3 3244 5 13
9 14 20 5 11 -9 14 -7 14 10 0 20 4 21 130 21 123 0 130 1 130 20 0 19 7 20
145 20 138 0 145 1 145 20 0 18 7 20 84 20 120 0 206 10 206 25 0 18 48 25
162 25 83 0 99 2 95 14 -4 10 3 16 21 19 38 7 249 3 256 -4z m-15355 -1165
c17 -4 31 -12 31 -19 0 -8 24 -14 75 -17 77 -5 99 -13 76 -27 -18 -11 20 -21
87 -21 45 0 52 -3 52 -20 0 -15 7 -20 25 -20 18 0 25 -5 25 -20 0 -17 7 -20
40 -20 33 0 40 -3 40 -19 0 -15 10 -21 40 -26 25 -4 40 -12 40 -21 0 -8 9 -14
19 -14 13 0 21 -8 23 -22 2 -15 11 -24 26 -26 14 -2 22 -10 22 -23 0 -12 7
-19 20 -19 13 0 20 -7 20 -20 0 -13 7 -20 20 -20 13 0 20 -7 20 -20 0 -13 7
-20 20 -20 15 0 20 -7 20 -25 0 -18 5 -25 19 -25 16 0 20 -8 23 -37 2 -21 9
-39 16 -39 6 -1 17 -2 22 -3 6 0 10 -19 10 -41 0 -33 3 -40 20 -40 13 0 20 -7
20 -20 0 -13 7 -20 20 -20 17 0 20 -7 20 -45 0 -38 3 -45 20 -45 18 0 20 -7
20 -60 0 -53 2 -60 20 -60 16 0 20 -7 20 -34 0 -52 11 -96 25 -96 12 0 25 -82
25 -161 0 -26 4 -39 14 -39 20 0 26 -55 26 -267 0 -129 4 -193 11 -193 5 0 7
5 3 12 -4 7 -3 8 4 4 9 -5 12 -218 12 -826 l0 -819 -32 -6 c-18 -3 -337 -4
-708 -3 l-675 3 -3 1003 c-2 994 -2 1002 -22 1002 -17 0 -20 7 -20 40 0 33 -3
40 -20 40 -17 0 -20 7 -20 45 0 38 -3 45 -20 45 -13 0 -20 7 -20 20 0 13 -7
20 -20 20 -13 0 -20 7 -20 20 0 17 -7 20 -40 20 -33 0 -40 3 -40 20 0 19 -7
20 -190 20 -183 0 -190 -1 -190 -20 0 -17 -7 -20 -40 -20 -33 0 -40 -3 -40
-20 0 -13 -7 -20 -20 -20 -13 0 -20 -7 -20 -19 0 -13 -8 -21 -22 -23 -15 -2
-24 -11 -26 -25 -2 -15 -10 -23 -23 -23 -12 0 -19 -7 -19 -20 0 -13 -7 -20
-20 -20 -13 0 -20 -7 -20 -20 0 -13 -7 -20 -20 -20 -17 0 -20 -7 -20 -40 0
-33 -3 -40 -20 -40 -17 0 -20 -7 -20 -41 0 -32 -4 -42 -20 -46 -14 -4 -20 -14
-20 -33 0 -53 -12 -88 -31 -93 -18 -5 -19 -30 -19 -881 l0 -876 -470 0 -470 0
0 1610 0 1610 430 0 430 0 0 -310 c0 -260 2 -310 14 -310 9 0 17 15 21 40 5
30 11 40 26 40 16 0 19 7 19 40 0 33 3 40 20 40 15 0 20 7 20 25 0 18 5 25 20
25 13 0 20 7 20 20 0 13 7 20 19 20 15 0 21 10 26 40 5 30 11 40 26 40 12 0
19 7 19 20 0 13 7 20 20 20 13 0 20 7 20 19 0 15 10 21 40 26 30 5 40 11 40
26 0 12 7 19 20 19 13 0 20 7 20 20 0 15 7 20 25 20 18 0 25 5 25 20 0 17 7
20 40 20 33 0 40 3 40 20 0 17 7 20 40 20 33 0 40 3 40 20 0 16 7 20 34 20 62
0 96 11 96 31 0 17 8 19 79 19 70 0 79 2 84 20 5 19 14 20 245 20 132 0 254
-3 271 -6z m6171 -15 c0 -16 8 -19 54 -19 81 0 116 -9 116 -31 0 -16 8 -19 45
-19 38 0 45 -3 45 -20 0 -17 7 -20 40 -20 33 0 40 -3 40 -20 0 -17 7 -20 40
-20 33 0 40 -3 40 -20 0 -14 7 -20 21 -20 12 0 23 -8 26 -19 3 -12 17 -21 38
-25 21 -4 35 -14 38 -26 3 -12 14 -20 26 -20 14 0 21 -6 21 -20 0 -13 7 -20
20 -20 13 0 20 -7 20 -20 0 -13 7 -20 20 -20 17 0 20 -7 20 -40 0 -34 3 -40
21 -40 12 0 23 -8 26 -19 3 -11 13 -21 24 -24 15 -4 19 -14 19 -46 0 -34 3
-41 20 -41 13 0 20 -7 20 -20 0 -11 7 -20 15 -20 8 0 15 -9 15 -20 0 -13 7
-20 19 -20 15 0 21 10 26 40 5 30 11 40 26 40 14 0 19 7 19 25 0 18 5 25 20
25 13 0 20 7 20 20 0 13 7 20 19 20 14 0 21 10 26 36 4 24 13 38 26 41 10 3
19 14 19 24 0 12 7 19 20 19 13 0 20 7 20 20 0 13 7 20 20 20 13 0 20 7 20 19
0 15 10 21 40 26 30 5 40 11 40 26 0 12 7 19 20 19 13 0 20 7 20 20 0 15 7 20
25 20 15 0 25 6 25 15 0 10 14 17 40 21 30 5 40 11 40 25 0 16 8 19 45 19 38
0 45 3 45 20 0 17 7 20 43 22 23 0 49 1 57 2 8 1 16 8 18 17 4 19 43 29 118
29 39 0 54 4 54 14 0 21 48 26 270 26 222 0 270 -5 270 -26 0 -10 16 -14 61
-14 51 0 62 -3 66 -19 5 -19 40 -31 94 -31 22 0 29 -5 29 -20 0 -17 7 -20 40
-20 33 0 40 -3 40 -20 0 -15 7 -20 25 -20 18 0 25 -5 25 -20 0 -17 7 -20 40
-20 33 0 40 -3 40 -20 0 -13 7 -20 20 -20 13 0 20 -7 20 -19 0 -12 9 -21 25
-25 16 -4 25 -13 25 -26 0 -13 7 -20 20 -20 13 0 20 -7 20 -20 0 -13 7 -20 20
-20 13 0 20 -7 20 -20 0 -13 7 -20 20 -20 17 0 20 -7 20 -40 0 -33 3 -40 20
-40 15 0 20 -7 20 -25 0 -18 5 -25 19 -25 15 0 21 -10 26 -40 5 -30 11 -40 26
-40 15 0 19 -7 19 -39 0 -30 4 -40 20 -44 16 -4 20 -14 20 -46 0 -34 3 -41 20
-41 18 0 20 -7 20 -60 0 -53 2 -60 20 -60 18 0 20 -7 20 -85 0 -78 2 -85 20
-85 18 0 20 -7 20 -74 0 -89 8 -136 25 -136 20 0 25 -219 25 -1142 l0 -868
-695 0 -695 0 -1 883 c-1 485 -2 890 -2 899 0 9 -2 17 -6 16 -28 -3 -31 6 -31
87 0 78 -2 85 -20 85 -18 0 -20 7 -20 60 0 53 -2 60 -20 60 -13 0 -20 7 -20
20 0 13 -7 20 -20 20 -14 0 -20 7 -20 21 0 12 -8 23 -19 26 -11 3 -21 13 -24
24 -3 11 -14 19 -26 19 -14 0 -21 6 -21 20 0 19 -7 20 -165 20 -158 0 -165 -1
-165 -20 0 -17 -7 -20 -39 -20 -30 0 -40 -4 -44 -19 -3 -13 -17 -22 -40 -26
-23 -5 -37 -14 -40 -26 -3 -11 -14 -19 -26 -19 -18 0 -21 -6 -21 -40 0 -33 -3
-40 -20 -40 -13 0 -20 -7 -20 -20 0 -13 -7 -20 -20 -20 -17 0 -20 -7 -20 -41
0 -32 -4 -42 -20 -46 -16 -4 -20 -14 -20 -53 0 -67 -10 -110 -26 -110 -12 0
-14 -140 -14 -880 l0 -880 -695 0 -695 0 0 959 c0 950 0 959 -20 964 -17 4
-20 14 -20 66 0 54 -2 61 -20 61 -17 0 -20 7 -20 40 0 33 -3 40 -20 40 -13 0
-20 7 -20 20 0 14 -7 20 -21 20 -12 0 -23 8 -26 20 -4 14 -17 22 -44 26 -29 5
-39 11 -39 25 0 18 -10 19 -165 19 -158 0 -165 -1 -165 -20 0 -17 -7 -20 -40
-20 -33 0 -40 -3 -40 -20 0 -13 -7 -20 -19 -20 -13 0 -21 -8 -23 -22 -2 -15
-11 -24 -25 -26 -15 -2 -23 -10 -23 -23 0 -12 -7 -19 -20 -19 -13 0 -20 -7
-20 -20 0 -13 -7 -20 -20 -20 -17 0 -20 -7 -20 -40 0 -33 -3 -40 -20 -40 -16
0 -20 -7 -20 -34 0 -54 -11 -96 -26 -96 -12 0 -14 -146 -14 -920 l0 -920 -712
2 -713 3 -3 1565 c-2 861 0 1584 3 1608 l6 42 663 0 664 0 5 -27 c3 -16 3
-134 0 -264 -6 -253 -1 -329 23 -329 10 0 14 12 14 40 0 33 3 40 20 40 13 0
20 7 20 20 0 13 7 20 19 20 14 0 20 10 25 39 4 27 12 40 26 44 12 3 20 14 20
26 0 14 6 21 20 21 13 0 20 7 20 20 0 13 7 20 20 20 13 0 20 7 20 20 0 13 7
20 20 20 13 0 20 7 20 20 0 13 7 20 20 20 14 0 20 7 20 21 0 12 8 23 19 26 11
3 21 13 24 24 3 11 14 19 26 19 14 0 21 6 21 20 0 17 7 20 40 20 33 0 40 3 40
20 0 15 7 20 25 20 18 0 25 5 25 20 0 17 7 20 40 20 33 0 40 3 40 20 0 15 7
20 29 20 54 0 89 12 94 31 5 17 15 19 86 19 75 0 81 2 81 20 0 21 4 21 250 19
238 -1 250 -2 250 -20z m-3541 -25 l31 -6 0 -983 c0 -540 3 -1010 6 -1044 5
-41 11 -61 20 -61 8 0 16 -16 20 -40 5 -30 11 -40 25 -40 12 0 19 -7 19 -20 0
-18 7 -20 60 -20 53 0 60 -2 60 -20 0 -18 7 -20 65 -20 58 0 65 2 65 20 0 18
7 20 60 20 53 0 60 2 60 20 0 17 7 20 45 20 l45 0 0 -145 c0 -138 1 -145 20
-145 20 0 20 -7 20 -270 0 -263 0 -270 20 -270 17 0 20 -7 20 -45 0 -38 -3
-45 -20 -45 -13 0 -20 -7 -20 -20 0 -17 -7 -20 -40 -20 -33 0 -40 -4 -40 -19
0 -15 -10 -20 -45 -25 -36 -6 -45 -11 -45 -27 0 -17 -7 -19 -60 -19 -53 0 -60
-2 -60 -20 0 -18 -7 -20 -64 -20 -55 0 -64 -3 -69 -20 -5 -19 -14 -20 -185
-20 -171 0 -180 -1 -185 -20 -4 -16 -14 -20 -46 -20 -34 0 -41 3 -41 20 0 19
-7 20 -145 20 -138 0 -145 1 -145 20 0 18 -7 20 -65 20 -58 0 -65 2 -65 20 0
17 -7 20 -41 20 -32 0 -42 4 -46 19 -3 13 -17 22 -44 26 -29 5 -39 11 -39 26
0 16 -7 19 -40 19 -33 0 -40 3 -40 20 0 13 -7 20 -20 20 -13 0 -20 7 -20 20 0
13 -7 20 -20 20 -13 0 -20 7 -20 20 0 14 -7 20 -21 20 -12 0 -23 8 -26 19 -3
11 -13 21 -24 24 -11 3 -19 14 -19 26 0 14 -6 21 -20 21 -17 0 -20 7 -20 40 0
33 -3 40 -20 40 -13 0 -20 7 -20 20 0 13 -7 20 -20 20 -17 0 -20 7 -20 41 0
32 -4 42 -19 46 -19 5 -31 40 -31 94 0 22 -5 29 -20 29 -18 0 -20 7 -20 65 0
58 -2 65 -20 65 -19 0 -20 7 -20 105 0 98 -1 105 -20 105 -20 0 -20 7 -20
1130 l0 1130 679 0 c373 0 693 -3 710 -6z"/>
<path d="M16100 13260 c0 -16 -8 -19 -62 -22 -51 -2 -63 -6 -62 -20 1 -12 -10
-18 -42 -23 -35 -5 -44 -10 -44 -26 0 -12 -7 -19 -20 -19 -13 0 -20 -7 -20
-20 0 -13 -7 -20 -19 -20 -11 0 -23 -9 -26 -20 -3 -11 -13 -20 -21 -20 -8 0
-14 -9 -14 -20 0 -13 -7 -20 -20 -20 -13 0 -20 -7 -20 -20 0 -13 -7 -20 -19
-20 -16 0 -21 -9 -27 -45 -5 -35 -10 -45 -25 -45 -17 0 -19 -8 -19 -60 0 -53
-2 -60 -20 -60 -19 0 -20 -7 -20 -125 0 -118 1 -125 20 -125 18 0 20 -7 20
-61 0 -52 3 -62 19 -66 13 -3 22 -17 26 -44 5 -29 11 -39 26 -39 16 0 19 -7
19 -40 0 -33 3 -40 20 -40 13 0 20 -7 20 -20 0 -13 7 -20 20 -20 13 0 20 -7
20 -19 0 -15 10 -21 40 -26 30 -5 40 -11 40 -26 0 -14 7 -19 25 -19 18 0 25
-5 25 -20 0 -17 7 -20 40 -20 33 0 40 -3 40 -20 0 -19 7 -20 210 -20 203 0
210 1 210 20 0 17 7 20 40 20 33 0 40 3 40 20 0 17 7 20 40 20 34 0 40 3 40
21 0 12 8 23 20 26 11 3 20 12 20 20 0 8 9 17 20 20 11 3 20 12 20 20 0 8 9
17 19 20 11 3 21 13 24 24 3 11 14 19 26 19 18 0 21 6 21 40 0 33 3 40 20 40
17 0 20 7 20 45 0 38 3 45 20 45 19 0 20 7 20 190 0 155 -3 190 -14 190 -16 0
-26 30 -26 78 0 25 -4 32 -19 32 -15 0 -20 10 -25 45 -6 36 -11 45 -27 45 -12
0 -19 7 -19 20 0 13 -7 20 -20 20 -13 0 -20 7 -20 20 0 13 -7 20 -20 20 -13 0
-20 7 -20 19 0 15 -10 21 -40 26 -25 4 -40 12 -40 21 0 8 -9 14 -21 14 -12 0
-23 8 -26 19 -5 22 -31 31 -85 31 -31 0 -38 4 -38 20 0 19 -7 20 -145 20 -137
0 -145 -1 -145 -20z"/>
</g>
</svg>
