<svg 
 xmlns="http://www.w3.org/2000/svg"
 xmlns:xlink="http://www.w3.org/1999/xlink"
 viewBox="0 0 48 62">
<path fill-rule="evenodd"  fill="rgb(255, 255, 255)"
 d="M42.000,62.000 L6.000,62.000 C2.700,62.000 -0.000,59.344 -0.000,56.095 L-0.000,27.000 C-0.000,23.753 2.700,21.000 6.000,21.000 L9.000,21.000 L9.000,14.762 C9.000,6.613 15.720,0.000 24.000,0.000 C32.281,0.000 39.000,6.613 39.000,14.762 L39.000,21.000 L42.000,21.000 C45.301,21.000 48.000,23.753 48.000,27.000 L48.000,56.000 C48.000,59.248 45.301,62.000 42.000,62.000 ZM34.986,14.697 C34.986,8.787 30.058,3.982 24.000,3.982 C17.941,3.982 13.015,8.787 13.015,14.697 L13.000,15.000 L13.000,21.000 L35.000,21.000 L34.986,14.697 ZM44.000,27.000 C44.000,25.895 43.105,25.000 42.000,25.000 L6.000,25.000 C4.895,25.000 4.000,25.895 4.000,27.000 L4.000,56.000 C4.000,57.105 4.895,58.000 6.000,58.000 L42.000,58.000 C43.105,58.000 44.000,57.105 44.000,56.000 L44.000,27.000 ZM24.000,46.988 C20.699,46.988 18.000,44.289 18.000,40.989 C18.000,37.689 20.699,34.991 24.000,34.991 C27.300,34.991 30.000,37.689 30.000,40.989 C30.000,44.289 27.300,46.988 24.000,46.988 Z"/>
</svg>