<svg 
 xmlns="http://www.w3.org/2000/svg"
 xmlns:xlink="http://www.w3.org/1999/xlink"
 viewBox="0 0 48 48">
<path fill-rule="evenodd"  fill="rgb(255, 255, 255)"
 d="M24.000,4.016 C28.411,4.016 31.985,7.589 31.985,12.000 C31.985,16.411 28.411,19.984 24.000,19.984 C19.589,19.984 16.016,16.411 16.016,12.000 C16.016,7.589 19.589,4.016 24.000,4.016 M24.000,31.012 C36.083,31.012 44.000,37.005 44.000,39.000 L43.987,43.988 L4.014,43.988 L4.000,39.000 C4.000,37.005 11.849,31.012 24.000,31.012 M24.000,0.000 C17.370,0.000 12.000,5.370 12.000,12.000 C12.000,18.630 17.370,24.000 24.000,24.000 C30.629,24.000 36.000,18.630 36.000,12.000 C36.000,5.370 30.629,0.000 24.000,0.000 ZM24.000,27.000 C15.990,27.000 -0.000,31.020 -0.000,39.000 L-0.000,48.000 L48.000,48.000 L48.000,39.000 C48.000,31.020 32.010,27.000 24.000,27.000 Z"/>
</svg>